<?xml version="1.0" encoding="UTF-8" standalone="no"?>
<!-- Created with Inkscape (http://www.inkscape.org/) -->
<svg xmlns:dc="http://purl.org/dc/elements/1.1/" xmlns:cc="http://creativecommons.org/ns#" xmlns:rdf="http://www.w3.org/1999/02/22-rdf-syntax-ns#" xmlns:svg="http://www.w3.org/2000/svg" xmlns="http://www.w3.org/2000/svg" xmlns:sodipodi="http://sodipodi.sourceforge.net/DTD/sodipodi-0.dtd" xmlns:inkscape="http://www.inkscape.org/namespaces/inkscape" id="svg2" xml:space="preserve" height="318" viewBox="0 0 1920.0188 318.00099" width="1920" version="1.1" inkscape:version="0.91 r13725" sodipodi:docname="logo.svg"><sodipodi:namedview pagecolor="#ffffff" bordercolor="#666666" borderopacity="1" objecttolerance="10" gridtolerance="10" guidetolerance="10" inkscape:pageopacity="0" inkscape:pageshadow="2" inkscape:window-width="1493" inkscape:window-height="808" id="namedview12" showgrid="false" fit-margin-top="0" fit-margin-left="0" fit-margin-right="0" fit-margin-bottom="0" inkscape:zoom="0.68397128" inkscape:cx="-143.2784" inkscape:cy="38.97648" inkscape:window-x="65" inkscape:window-y="24" inkscape:window-maximized="0" inkscape:current-layer="svg2"/><metadata id="metadata8"><rdf:RDF><cc:Work rdf:about=""><dc:format>image/svg+xml</dc:format><dc:type rdf:resource="http://purl.org/dc/dcmitype/StillImage"/><dc:title/></cc:Work></rdf:RDF></metadata><defs id="defs6"><clipPath id="clipPath16" clipPathUnits="userSpaceOnUse"><path id="path18" d="m 0,595.28 841.89,0 L 841.89,0 0,0 0,595.28 Z" inkscape:connector-curvature="0"/></clipPath></defs><g id="g10" transform="matrix(5.0978872,0,0,-5.0978872,-1101.8675,1661.9283)"><g id="g12"><g id="g14" clip-path="url(#clipPath16)"><g id="g148" transform="translate(293.19,296.57)"><path id="path150" d="m 0,0 13.93,13.929 c 4.19,4.19 9.761,6.498 15.687,6.498 5.927,0 11.498,-2.308 15.688,-6.498 L 57.81,1.423 64.174,7.788 51.669,20.292 c -5.89,5.891 -13.721,9.135 -22.052,9.135 -8.329,0 -16.161,-3.244 -22.052,-9.135 L -8.122,4.604 -8.123,4.605 -14.486,-1.759 -30.174,-17.447 c -4.19,-4.191 -9.762,-6.499 -15.688,-6.499 -5.926,0 -11.497,2.308 -15.688,6.499 -4.19,4.19 -6.498,9.761 -6.498,15.688 0,5.926 2.308,11.497 6.498,15.688 4.191,4.19 9.762,6.498 15.688,6.498 5.926,0 11.498,-2.308 15.694,-6.504 l 12.5,-12.5 6.363,6.364 -12.505,12.505 c -5.89,5.891 -13.721,9.135 -22.052,9.135 -8.33,0 -16.161,-3.244 -22.052,-9.135 -5.89,-5.89 -9.134,-13.721 -9.134,-22.051 0,-8.331 3.244,-16.162 9.134,-22.052 5.891,-5.891 13.722,-9.135 22.052,-9.135 8.33,0 16.162,3.244 22.052,9.135 L -9.432,-9.432 0,0 Z m 127.15,20.292 c -5.89,5.891 -13.722,9.134 -22.052,9.134 -8.33,0 -16.161,-3.243 -22.052,-9.134 L 67.358,4.604 60.994,-1.759 60.995,-1.76 45.307,-17.447 c -4.191,-4.192 -9.762,-6.499 -15.688,-6.499 -5.926,0 -11.497,2.307 -15.694,6.504 l -12.5,12.501 -6.364,-6.365 12.506,-12.506 c 5.891,-5.89 13.722,-9.134 22.052,-9.134 8.33,0 16.162,3.244 22.052,9.134 l 15.687,15.688 10e-4,0 6.364,6.364 -0.001,0 15.688,15.688 c 4.191,4.191 9.762,6.498 15.688,6.498 5.927,0 11.498,-2.307 15.688,-6.498 4.191,-4.19 6.498,-9.761 6.498,-15.688 0,-5.927 -2.307,-11.498 -6.498,-15.687 -4.191,-4.192 -9.762,-6.499 -15.688,-6.499 -5.926,0 -11.497,2.307 -15.688,6.499 l -12.505,12.505 -6.364,-6.364 12.505,-12.506 c 5.891,-5.89 13.722,-9.134 22.052,-9.134 8.33,0 16.161,3.244 22.052,9.134 5.89,5.89 9.134,13.721 9.134,22.052 0,8.33 -3.244,16.162 -9.134,22.052 m 140.37,-45.755 c 0,0 0.703,-2.11 3.316,-2.11 1.911,0 2.714,0.803 2.714,1.808 0,2.614 -6.834,1.006 -6.834,4.825 0,1.407 1.307,2.713 3.719,2.713 3.518,0 4.221,-2.915 4.221,-2.915 l -1.307,0 c 0,0 -0.602,1.81 -2.914,1.81 -1.709,0 -2.513,-0.804 -2.513,-1.608 0,-2.613 6.834,-1.005 6.834,-4.825 0,-1.607 -1.306,-2.914 -3.92,-2.914 -3.818,0 -4.623,3.216 -4.623,3.216 l 1.307,0 z m -4.3213,2.7139 c -0.201,1.909 -1.708,3.417 -3.719,3.417 -2.01,0 -3.517,-1.508 -3.819,-3.417 l 7.538,0 z m -3.719,4.522 c 2.815,0 5.026,-2.21 5.026,-5.126 l 0,-0.501 -8.845,0 c 0.101,-2.111 1.709,-3.719 3.819,-3.719 2.714,0 3.618,2.211 3.618,2.211 l 1.206,0 c 0,0 -1.105,-3.317 -4.824,-3.317 -2.814,0 -5.024,2.211 -5.024,5.226 0,3.016 2.21,5.226 5.024,5.226 m -8.7427,-0.2006 1.206,0 0,-10.05 -1.206,0 0,10.05 z m 0.602,3.92 c 0.503,0 0.906,-0.403 0.906,-0.905 0,-0.502 -0.403,-0.904 -0.906,-0.904 -0.502,0 -0.903,0.402 -0.903,0.904 0,0.502 0.401,0.905 0.903,0.905 m -8.7419,-13.066 c 1.909,0 3.718,1.709 3.718,4.12 0,2.412 -1.809,4.121 -3.718,4.121 -2.011,0 -3.719,-1.709 -3.719,-4.121 0,-2.411 1.708,-4.12 3.719,-4.12 m -0.101,9.347 c 2.111,0 3.397,-1.307 3.799,-2.211 l 0.02,0 0,2.01 1.206,0 0,-13.87 -8.542,0 0,1.106 7.336,0 0,4.723 -0.02,0 c -0.402,-0.904 -1.688,-2.21 -3.799,-2.21 -2.613,0 -4.824,2.21 -4.824,5.225 0,3.016 2.211,5.227 4.824,5.227 m -11.758,-9.347 c 2.211,0 3.92,1.709 3.92,4.12 0,2.412 -1.709,4.121 -3.92,4.121 -2.211,0 -3.92,-1.709 -3.92,-4.121 0,-2.411 1.709,-4.12 3.92,-4.12 m 0,9.347 c 2.915,0 5.126,-2.211 5.126,-5.227 0,-3.015 -2.211,-5.225 -5.126,-5.225 -2.915,0 -5.125,2.21 -5.125,5.225 0,3.016 2.21,5.227 5.125,5.227 m -9.8487,3.819 1.206,0 0,-12.965 2.312,0 0,-1.105 -3.518,0 0,14.07 z m -7.6377,-13.166 c 2.211,0 3.919,1.709 3.919,4.12 0,2.412 -1.708,4.121 -3.919,4.121 -2.211,0 -3.92,-1.709 -3.92,-4.121 0,-2.411 1.709,-4.12 3.92,-4.12 m 0,9.347 c 2.914,0 5.125,-2.211 5.125,-5.227 0,-3.015 -2.211,-5.225 -5.125,-5.225 -2.915,0 -5.126,2.21 -5.126,5.225 0,3.016 2.211,5.227 5.126,5.227 m -16.08,-0.2015 1.206,0 0,-1.708 0.021,0 c 0.402,0.804 1.487,1.909 3.597,1.909 2.211,0 3.82,-1.608 3.82,-4.321 l 0,-5.93 -1.207,0 0,5.93 c 0,2.11 -1.105,3.216 -2.814,3.216 -1.909,0 -3.417,-1.508 -3.417,-3.618 l 0,-5.528 -1.206,0 0,10.05 z m -11.657,4.0205 1.205,0 0,-5.729 0.021,0 c 0.402,0.804 1.487,1.91 3.597,1.91 2.212,0 3.82,-1.609 3.82,-4.322 l 0,-5.929 -1.206,0 0,5.929 c 0,2.111 -1.106,3.216 -2.814,3.216 -1.91,0 -3.418,-1.508 -3.418,-3.618 l 0,-5.527 -1.205,0 0,14.07 z m -7.2363,-3.8194 c 3.819,0 4.724,-3.518 4.724,-3.518 l -1.206,0 c 0,0 -0.825,2.413 -3.518,2.413 -2.01,0 -3.718,-1.709 -3.718,-4.122 0,-2.411 1.708,-4.12 3.718,-4.12 2.814,0 3.618,2.614 3.618,2.614 l 1.206,0 c 0,0 -0.904,-3.719 -4.824,-3.719 -2.713,0 -4.925,2.211 -4.925,5.225 0,3.016 2.212,5.227 4.925,5.227 m -8.0391,-4.5224 c -0.201,1.909 -1.709,3.417 -3.719,3.417 -2.01,0 -3.517,-1.508 -3.819,-3.417 l 7.538,0 z m -3.719,4.522 c 2.814,0 5.026,-2.21 5.026,-5.126 l 0,-0.501 -8.845,0 c 0.101,-2.111 1.709,-3.719 3.819,-3.719 2.714,0 3.617,2.211 3.617,2.211 l 1.207,0 c 0,0 -1.105,-3.317 -4.824,-3.317 -2.814,0 -5.025,2.211 -5.025,5.226 0,3.016 2.211,5.226 5.025,5.226 m -12.563,-0.2007 1.408,0 0,2.211 1.205,0 0,-2.211 3.317,0 0,-1.105 -3.317,0 0,-7.839 3.418,0 0,-1.106 -4.623,0 0,8.945 -1.408,0 0,1.105 z m 140.7,12.454 c 2.011,0 3.72,1.709 3.72,4.121 0,2.412 -1.709,4.121 -3.72,4.121 -1.909,0 -3.718,-1.709 -3.718,-4.121 0,-2.412 1.809,-4.121 3.718,-4.121 m -4.924,13.167 1.206,0 0,-6.031 0.02,0 c 0.402,0.905 1.688,2.211 3.8,2.211 2.612,0 4.823,-2.211 4.823,-5.226 0,-3.015 -2.211,-5.226 -4.823,-5.226 -2.112,0 -3.398,1.306 -3.8,2.211 l -0.02,0 0,-2.01 -1.206,0 0,14.071 z M 285.9152,-1.15 c -0.202,1.91 -1.709,3.417 -3.719,3.417 -2.01,0 -3.517,-1.507 -3.819,-3.417 l 7.538,0 z m -3.719,4.523 c 2.814,0 5.025,-2.211 5.025,-5.126 l 0,-0.502 -8.844,0 c 0.101,-2.111 1.708,-3.719 3.819,-3.719 2.713,0 3.618,2.211 3.618,2.211 l 1.205,0 c 0,0 -1.104,-3.317 -4.823,-3.317 -2.814,0 -5.025,2.212 -5.025,5.227 0,3.015 2.211,5.226 5.025,5.226 m -19.396,-0.2008 1.909,-8.945 0.703,0 1.81,8.945 2.612,0 1.81,-8.945 0.703,0 1.91,8.945 1.307,0 -2.211,-10.051 -2.714,0 -1.81,8.945 -0.602,0 -1.809,-8.945 -2.714,0 -2.211,10.051 1.307,0 z M 252.9516,-1.15 c -0.201,1.91 -1.709,3.417 -3.719,3.417 -2.01,0 -3.517,-1.507 -3.819,-3.417 l 7.538,0 z m -3.719,4.523 c 2.815,0 5.025,-2.211 5.025,-5.126 l 0,-0.502 -8.844,0 c 0.101,-2.111 1.709,-3.719 3.819,-3.719 2.713,0 3.618,2.211 3.618,2.211 l 1.206,0 c 0,0 -1.105,-3.317 -4.824,-3.317 -2.814,0 -5.025,2.212 -5.025,5.227 0,3.015 2.211,5.226 5.025,5.226 m -9.7478,3.8193 1.205,0 0,-12.965 2.312,0 0,-1.106 -3.517,0 0,14.071 z m -7.4375,-13.166 c 2.01,0 3.719,1.709 3.719,4.121 0,2.412 -1.709,4.121 -3.719,4.121 -1.909,0 -3.719,-1.709 -3.719,-4.121 0,-2.412 1.81,-4.121 3.719,-4.121 m -4.925,13.167 1.206,0 0,-6.031 0.021,0 c 0.402,0.905 1.688,2.211 3.799,2.211 2.613,0 4.824,-2.211 4.824,-5.226 0,-3.015 -2.211,-5.226 -4.824,-5.226 -2.111,0 -3.397,1.306 -3.799,2.211 l -0.021,0 0,-2.01 -1.206,0 0,14.071 z m -4.4204,-4.021 1.206,0 0,-10.051 -1.206,0 0,10.051 z m 0.602,3.92 c 0.502,0 0.905,-0.402 0.905,-0.905 0,-0.502 -0.403,-0.904 -0.905,-0.904 -0.503,0 -0.904,0.402 -0.904,0.904 0,0.503 0.401,0.905 0.904,0.905 m -10.39,-10.955 c 0,0 0.704,-2.111 3.317,-2.111 1.909,0 2.713,0.804 2.713,1.809 0,2.614 -6.834,1.005 -6.834,4.824 0,1.407 1.307,2.714 3.718,2.714 3.519,0 4.222,-2.915 4.222,-2.915 l -1.307,0 c 0,0 -0.603,1.809 -2.915,1.809 -1.708,0 -2.512,-0.804 -2.512,-1.608 0,-2.613 6.834,-1.004 6.834,-4.824 0,-1.608 -1.306,-2.915 -3.919,-2.915 -3.819,0 -4.624,3.217 -4.624,3.217 l 1.307,0 z m -10.25,0 c 0,0 0.703,-2.111 3.316,-2.111 1.91,0 2.713,0.804 2.713,1.809 0,2.614 -6.834,1.005 -6.834,4.824 0,1.407 1.307,2.714 3.719,2.714 3.518,0 4.221,-2.915 4.221,-2.915 l -1.307,0 c 0,0 -0.602,1.809 -2.914,1.809 -1.709,0 -2.513,-0.804 -2.513,-1.608 0,-2.613 6.834,-1.004 6.834,-4.824 0,-1.608 -1.305,-2.915 -3.919,-2.915 -3.819,0 -4.623,3.217 -4.623,3.217 l 1.307,0 z m -4.3213,2.7129 c -0.202,1.91 -1.709,3.417 -3.72,3.417 -2.009,0 -3.516,-1.507 -3.818,-3.417 l 7.538,0 z m -3.72,4.523 c 2.815,0 5.026,-2.211 5.026,-5.126 l 0,-0.502 -8.844,0 c 0.101,-2.111 1.708,-3.719 3.818,-3.719 2.714,0 3.618,2.211 3.618,2.211 l 1.206,0 c 0,0 -1.104,-3.317 -4.824,-3.317 -2.813,0 -5.024,2.212 -5.024,5.227 0,3.015 2.211,5.226 5.024,5.226 m -11.58,-1e-4 c 3.819,0 4.724,-3.518 4.724,-3.518 l -1.206,0 c 0,0 -0.825,2.413 -3.518,2.413 -2.011,0 -3.719,-1.709 -3.719,-4.121 0,-2.412 1.708,-4.121 3.719,-4.121 2.813,0 3.617,2.613 3.617,2.613 l 1.207,0 c 0,0 -0.905,-3.719 -4.824,-3.719 -2.714,0 -4.925,2.212 -4.925,5.227 0,3.015 2.211,5.226 4.925,5.226 m -11.457,0 c 3.819,0 4.724,-3.518 4.724,-3.518 l -1.206,0 c 0,0 -0.825,2.413 -3.518,2.413 -2.01,0 -3.719,-1.709 -3.719,-4.121 0,-2.412 1.709,-4.121 3.719,-4.121 2.813,0 3.618,2.613 3.618,2.613 l 1.206,0 c 0,0 -0.904,-3.719 -4.824,-3.719 -2.714,0 -4.925,2.212 -4.925,5.227 0,3.015 2.211,5.226 4.925,5.226 m -12.361,-9.3471 c 1.909,0 3.719,1.709 3.719,4.121 0,2.412 -1.81,4.121 -3.719,4.121 -2.01,0 -3.719,-1.709 -3.719,-4.121 0,-2.412 1.709,-4.121 3.719,-4.121 m -0.101,9.347 c 2.112,0 3.398,-1.306 3.799,-2.211 l 0.021,0 0,2.01 1.206,0 0,-10.05 -1.206,0 0,2.01 -0.021,0 c -0.401,-0.905 -1.687,-2.211 -3.799,-2.211 -2.613,0 -4.824,2.211 -4.824,5.226 0,3.015 2.211,5.226 4.824,5.226 m 62.611,14.565 c 0,0 0.503,-1.507 2.513,-1.507 1.608,0 2.11,0.602 2.11,1.205 0,1.809 -6.432,0.503 -6.432,4.523 0,1.508 1.508,3.015 4.021,3.015 4.019,0 4.522,-3.216 4.522,-3.216 l -2.211,0 c 0,0 -0.402,1.307 -2.311,1.307 -1.267,0 -1.809,-0.543 -1.809,-1.126 0,-1.789 6.432,-0.483 6.432,-4.503 0,-1.608 -1.508,-3.115 -4.322,-3.115 -4.221,0 -4.825,3.417 -4.825,3.417 l 2.312,0 z m -8.6426,-1.5074 c 1.81,0 3.015,1.206 3.015,3.417 0,2.211 -1.205,3.417 -3.015,3.417 -1.708,0 -2.914,-1.206 -2.914,-3.417 0,-2.211 1.206,-3.417 2.914,-3.417 m -5.024,8.542 2.11,0 0,-1.306 0.101,0 c 0,0 1.105,1.508 3.215,1.508 2.714,0 4.825,-2.111 4.825,-5.327 0,-3.216 -2.111,-5.327 -4.825,-5.327 -2.11,0 -3.215,1.508 -3.215,1.508 l -0.101,0 0,-5.126 -2.11,0 0,14.07 z m -7.1361,-8.542 c 1.81,0 3.115,1.306 3.115,3.417 0,2.11 -1.305,3.417 -3.115,3.417 -1.809,0 -3.115,-1.307 -3.115,-3.417 0,-2.111 1.306,-3.417 3.115,-3.417 m 0,8.744 c 3.016,0 5.327,-2.312 5.327,-5.327 0,-3.015 -2.311,-5.327 -5.327,-5.327 -3.016,0 -5.327,2.312 -5.327,5.327 0,3.015 2.311,5.327 5.327,5.327 m -11.858,-8.744 c 1.809,0 3.115,1.306 3.115,3.417 0,2.11 -1.306,3.417 -3.115,3.417 -1.81,0 -3.116,-1.307 -3.116,-3.417 0,-2.111 1.306,-3.417 3.116,-3.417 m 0,8.744 c 3.015,0 5.326,-2.312 5.326,-5.327 0,-3.015 -2.311,-5.327 -5.326,-5.327 -3.016,0 -5.327,2.312 -5.327,5.327 0,3.015 2.311,5.327 5.327,5.327 m -10.553,3.6179 2.11,0 0,-12.161 2.312,0 0,-1.91 -4.422,0 0,14.071 z m -7.1358,-12.362 c 1.81,0 3.116,1.306 3.116,3.417 0,2.11 -1.306,3.417 -3.116,3.417 -1.809,0 -3.115,-1.307 -3.115,-3.417 0,-2.111 1.306,-3.417 3.115,-3.417 m 0,8.744 c 3.015,0 5.326,-2.312 5.326,-5.327 0,-3.015 -2.311,-5.327 -5.326,-5.327 -3.015,0 -5.326,2.312 -5.326,5.327 0,3.015 2.311,5.327 5.326,5.327 m -12.16,-8.744 c 1.709,0 2.914,1.206 2.914,3.417 0,2.211 -1.205,3.417 -2.914,3.417 -1.809,0 -3.016,-1.206 -3.016,-3.417 0,-2.211 1.207,-3.417 3.016,-3.417 m -0.402,8.744 c 2.111,0 3.216,-1.508 3.216,-1.508 l 0.1,0 0,5.126 2.111,0 0,-14.071 -2.111,0 0,1.307 -0.1,0 c 0,0 -1.105,-1.508 -3.216,-1.508 -2.713,0 -4.824,2.111 -4.824,5.327 0,3.216 2.111,5.327 4.824,5.327" inkscape:connector-curvature="0" style="fill:#e73135"/></g></g></g></g></svg>