<?xml version="1.0" encoding="UTF-8" standalone="no"?>
<!-- Created with Inkscape (http://www.inkscape.org/) -->

<svg
   id="svg2"
   xml:space="preserve"
   height="317.96741"
   viewBox="0 0 1087.5424 317.9684"
   width="1087.5317"
   version="1.1"
   inkscape:version="1.2 (1:1.2.1+202207142221+cd75a1ee6d)"
   sodipodi:docname="doloops-logo.svg"
   xmlns:inkscape="http://www.inkscape.org/namespaces/inkscape"
   xmlns:sodipodi="http://sodipodi.sourceforge.net/DTD/sodipodi-0.dtd"
   xmlns="http://www.w3.org/2000/svg"
   xmlns:svg="http://www.w3.org/2000/svg"
   xmlns:rdf="http://www.w3.org/1999/02/22-rdf-syntax-ns#"
   xmlns:cc="http://creativecommons.org/ns#"
   xmlns:dc="http://purl.org/dc/elements/1.1/"><sodipodi:namedview
     pagecolor="#ffffff"
     bordercolor="#666666"
     borderopacity="1"
     objecttolerance="10"
     gridtolerance="10"
     guidetolerance="10"
     inkscape:pageopacity="0"
     inkscape:pageshadow="2"
     inkscape:window-width="1493"
     inkscape:window-height="808"
     id="namedview12"
     showgrid="false"
     fit-margin-top="0"
     fit-margin-left="0"
     fit-margin-right="0"
     fit-margin-bottom="0"
     inkscape:zoom="0.49166667"
     inkscape:cx="368.13559"
     inkscape:cy="159.66102"
     inkscape:window-x="65"
     inkscape:window-y="27"
     inkscape:window-maximized="0"
     inkscape:current-layer="svg2"
     inkscape:showpageshadow="2"
     inkscape:pagecheckerboard="0"
     inkscape:deskcolor="#d1d1d1" /><metadata
     id="metadata8"><rdf:RDF><cc:Work
         rdf:about=""><dc:format>image/svg+xml</dc:format><dc:type
           rdf:resource="http://purl.org/dc/dcmitype/StillImage" /></cc:Work></rdf:RDF></metadata><defs
     id="defs6"><clipPath
       clipPathUnits="userSpaceOnUse"
       id="clipPath320"><g
         id="g326"
         style="stroke-width:1"><g
           id="g324"
           style="stroke-width:1"><path
             id="path322"
             d="M -1101.8675,-1372.742 H 3189.9928 V 1661.9283 H -1101.8675 Z"
             inkscape:connector-curvature="0"
             style="stroke-width:1" /></g></g></clipPath></defs><path
     id="path150"
     d="m 392.78205,150.04789 71.01357,-71.008471 c 21.36015,-21.360147 49.76048,-33.126071 79.97056,-33.126071 30.21517,0 58.6155,11.765924 79.97565,33.126071 L 687.49091,142.7936 719.93386,110.34554 656.18478,46.601563 C 626.15823,16.569909 586.23667,0.03236337 543.76618,0.03236337 c -42.46031,0 -82.38696,16.53754563 -112.41861,46.56919963 l -79.97056,79.975657 -0.005,-0.005 -32.43785,32.44295 -79.97566,79.97566 c -21.36015,21.36524 -49.76557,33.13117 -79.97565,33.13117 -30.21008,0 -58.61041,-11.76593 -79.975657,-33.13117 -21.360148,-21.36015 -33.126071,-49.76048 -33.126071,-79.97566 0,-30.21008 11.765923,-58.61041 33.126071,-79.975651 21.365247,-21.360147 49.765577,-33.126071 79.975657,-33.126071 30.21008,0 58.6155,11.765924 80.00624,33.156659 L 302.71258,142.7936 335.15044,110.35064 271.40136,46.601563 C 241.3748,16.569909 201.45325,0.03236337 158.98275,0.03236337 116.51735,0.03236337 76.595792,16.569909 46.564139,46.601563 16.537583,76.628119 3.70144e-5,116.54967 3.70144e-5,159.01507 c 0,42.4705 16.5375459856,82.39206 46.5641019856,112.41861 30.031653,30.03166 69.953211,46.5692 112.418611,46.5692 42.4654,0 82.39205,-16.53754 112.41861,-46.5692 l 73.29742,-73.30252 z M 1040.9784,46.601563 C 1010.9519,16.569909 971.0252,0.03746125 928.5598,0.03746125 c -42.4654,0 -82.38696,16.53244775 -112.41861,46.56410175 l -79.97565,79.975657 -32.44296,32.43785 0.005,0.005 -79.97565,79.97056 c -21.36525,21.37034 -49.76558,33.13117 -79.97566,33.13117 -30.21008,0 -58.61041,-11.76083 -80.00624,-33.15666 l -63.72359,-63.72869 -32.44295,32.44805 63.75417,63.75418 c 30.03166,30.02656 69.95321,46.5641 112.41861,46.5641 42.4654,0 82.39205,-16.53754 112.41861,-46.5641 l 79.97056,-79.97565 h 0.005 l 32.44296,-32.44296 h -0.005 l 79.97565,-79.975653 c 21.36525,-21.365245 49.76558,-33.126071 79.97566,-33.126071 30.21518,0 58.61551,11.760826 79.97569,33.126071 21.3652,21.360143 33.126,49.760473 33.126,79.975653 0,30.21518 -11.7608,58.61551 -33.126,79.97056 -21.36528,21.37034 -49.76561,33.13117 -79.97569,33.13117 -30.21008,0 -58.61041,-11.76083 -79.97566,-33.13117 l -63.74907,-63.74908 -32.44296,32.44295 63.74908,63.75418 c 30.03165,30.02656 69.95321,46.5641 112.41861,46.5641 42.4654,0 82.38699,-16.53754 112.41859,-46.5641 30.0266,-30.02656 46.5641,-69.94811 46.5641,-112.41861 0,-42.4654 -16.5375,-82.392051 -46.5641,-112.418607"
     inkscape:connector-curvature="0"
     style="fill:#e73135;stroke-width:5.09789"
     clip-path="url(#clipPath320)"
     sodipodi:nodetypes="ccsccccscccccssscsscccsssssccccssccccsccccscccccsscscsccccscsc"
     transform="translate(-3.70144e-5,-0.03342525)" /></svg>
