<?xml version="1.0" standalone="no"?><!DOCTYPE svg PUBLIC "-//W3C//DTD SVG 1.1//EN" "http://www.w3.org/Graphics/SVG/1.1/DTD/svg11.dtd"><svg xmlns:xlink="http://www.w3.org/1999/xlink" version="1.1" class="highcharts-root" style="font-family: &quot;Lucida Grande&quot;, &quot;Lucida Sans Unicode&quot;, Arial, Helvetica, sans-serif; font-size: 12px;" xmlns="http://www.w3.org/2000/svg" width="600" height="400" viewBox="0 0 600 400" aria-label="Interactive chart" aria-hidden="false"><desc aria-hidden="true">Created with Highcharts 10.0.0</desc><defs aria-hidden="true"><clipPath id="highcharts-g127ozq-68-"><rect x="0" y="0" width="531" height="280" fill="none"></rect></clipPath><clipPath id="highcharts-g127ozq-79-"><rect x="0" y="0" width="531" height="280" fill="none"></rect></clipPath></defs><rect fill="#ffffff" class="highcharts-background" x="0" y="0" width="600" height="400" rx="0" ry="0" aria-hidden="true"></rect><rect fill="none" class="highcharts-plot-background" x="59" y="46" width="531" height="280" aria-hidden="true"></rect><g class="highcharts-grid highcharts-xaxis-grid" data-z-index="1" aria-hidden="true"><path fill="none" stroke-dasharray="none" data-z-index="1" class="highcharts-grid-line" d="M 59.5 46 L 59.5 326" opacity="1"></path><path fill="none" stroke-dasharray="none" data-z-index="1" class="highcharts-grid-line" d="M 175.5 46 L 175.5 326" opacity="1"></path><path fill="none" stroke-dasharray="none" data-z-index="1" class="highcharts-grid-line" d="M 290.5 46 L 290.5 326" opacity="1"></path><path fill="none" stroke-dasharray="none" data-z-index="1" class="highcharts-grid-line" d="M 406.5 46 L 406.5 326" opacity="1"></path><path fill="none" stroke-dasharray="none" data-z-index="1" class="highcharts-grid-line" d="M 522.5 46 L 522.5 326" opacity="1"></path></g><g class="highcharts-grid highcharts-yaxis-grid" data-z-index="1" aria-hidden="true"><path fill="none" stroke="#e6e6e6" stroke-width="1" stroke-dasharray="none" data-z-index="1" class="highcharts-grid-line" d="M 59 326.5 L 590 326.5" opacity="1"></path><path fill="none" stroke="#e6e6e6" stroke-width="1" stroke-dasharray="none" data-z-index="1" class="highcharts-grid-line" d="M 59 270.5 L 590 270.5" opacity="1"></path><path fill="none" stroke="#e6e6e6" stroke-width="1" stroke-dasharray="none" data-z-index="1" class="highcharts-grid-line" d="M 59 214.5 L 590 214.5" opacity="1"></path><path fill="none" stroke="#e6e6e6" stroke-width="1" stroke-dasharray="none" data-z-index="1" class="highcharts-grid-line" d="M 59 158.5 L 590 158.5" opacity="1"></path><path fill="none" stroke="#e6e6e6" stroke-width="1" stroke-dasharray="none" data-z-index="1" class="highcharts-grid-line" d="M 59 102.5 L 590 102.5" opacity="1"></path><path fill="none" stroke="#e6e6e6" stroke-width="1" stroke-dasharray="none" data-z-index="1" class="highcharts-grid-line" d="M 59 45.5 L 590 45.5" opacity="1"></path></g><rect fill="none" class="highcharts-plot-border" data-z-index="1" x="59" y="46" width="531" height="280" aria-hidden="true"></rect><g class="highcharts-axis highcharts-xaxis" data-z-index="2" aria-hidden="true"><path fill="none" class="highcharts-tick" stroke="#ccd6eb" stroke-width="1" d="M 59.5 326 L 59.5 336" opacity="1"></path><path fill="none" class="highcharts-tick" stroke="#ccd6eb" stroke-width="1" d="M 175.5 326 L 175.5 336" opacity="1"></path><path fill="none" class="highcharts-tick" stroke="#ccd6eb" stroke-width="1" d="M 290.5 326 L 290.5 336" opacity="1"></path><path fill="none" class="highcharts-tick" stroke="#ccd6eb" stroke-width="1" d="M 406.5 326 L 406.5 336" opacity="1"></path><path fill="none" class="highcharts-tick" stroke="#ccd6eb" stroke-width="1" d="M 522.5 326 L 522.5 336" opacity="1"></path><path fill="none" class="highcharts-axis-line" stroke="#ccd6eb" stroke-width="1" data-z-index="7" d="M 59 326.5 L 590 326.5"></path></g><g class="highcharts-axis highcharts-yaxis" data-z-index="2" aria-hidden="true"><text x="24.216666221618652" data-z-index="7" text-anchor="middle" transform="translate(0,0) rotate(270 24.216666221618652 186)" class="highcharts-axis-title" style="color: rgb(102, 102, 102); fill: rgb(102, 102, 102);" y="186">Values</text><path fill="none" class="highcharts-axis-line" data-z-index="7" d="M 59 46 L 59 326"></path></g><g class="highcharts-series-group" data-z-index="3" aria-hidden="false"><g class="highcharts-series highcharts-series-0 highcharts-spline-series highcharts-color-0" data-z-index="0.1" opacity="1" transform="translate(59,46) scale(1 1)" clip-path="url(#highcharts-g127ozq-79-)" aria-hidden="true"><path fill="none" d="M 5.2058823529412 196.01114662026 C 5.2058823529412 196.01114662026 39.91176470588228 81.4925361883 63.049019607843 81.4925361883 C 86.1862745098058 81.4925361883 97.75490196078721 259.970430290571 120.89215686275 259.970430290571 C 144.02941176471 259.970430290571 155.59803921569 232.327825507922 178.73529411765 232.327825507922 C 201.87254901961 232.327825507922 213.44117647059002 253.872017906356 236.57843137255 253.872017906356 C 259.71568627450995 253.872017906356 271.28431372549 186.49527891779513 294.42156862745 156.00991506709 C 317.55882352941 125.52455121638475 329.12745098038994 101.44519865282999 352.26470588235 101.44519865282999 C 375.40196078431 101.44519865282999 386.97058823528994 175.00716795728582 410.10784313725 203.39839556704402 C 433.24509803921393 231.78962317680703 444.81372549019596 243.401336701633 467.95098039216 243.401336701633 C 491.08823529412 243.401336701633 525.79411764706 29.876055417000003 525.79411764706 29.876055417000003" class="highcharts-graph" data-z-index="1" stroke="#7cb5ec" stroke-width="2" stroke-linejoin="round" stroke-linecap="round"></path></g><g class="highcharts-markers highcharts-series-0 highcharts-spline-series highcharts-color-0" data-z-index="0.1" opacity="1" transform="translate(59,46) scale(1 1)" clip-path="none" aria-hidden="false" aria-label=""><path fill="#7cb5ec" d="M 5 200 A 4 4 0 1 1 5.0039999993333355 199.99999800000018 Z" opacity="1" class="highcharts-point highcharts-negative highcharts-color-0" tabindex="-1" style="outline: currentcolor none medium;" role="img" aria-label="1. Thursday, Apr 21, 13:14:58.073, -1.000398093580717. Value."></path><path fill="#7cb5ec" d="M 63 85 A 4 4 0 1 1 63.00399999933334 84.99999800000016 Z" opacity="1" class="highcharts-point highcharts-color-0" tabindex="-1" style="outline: currentcolor none medium;" role="img" aria-label="2. Thursday, Apr 21, 13:14:59.073, 3.0895522789892915. Value."></path><path fill="#7cb5ec" d="M 120 264 A 4 4 0 1 1 120.00399999933333 263.9999980000002 Z" opacity="1" class="highcharts-point highcharts-negative highcharts-color-0" tabindex="-1" style="outline: currentcolor none medium;" role="img" aria-label="3. Thursday, Apr 21, 13:15:00.073, -3.2846582246632607. Value."></path><path fill="#7cb5ec" d="M 178 236 A 4 4 0 1 1 178.00399999933333 235.99999800000018 Z" opacity="1" class="highcharts-point highcharts-negative highcharts-color-0" tabindex="-1" style="outline: currentcolor none medium;" role="img" aria-label="4. Thursday, Apr 21, 13:15:01.073, -2.2974223395686284. Value."></path><path fill="#7cb5ec" d="M 236 258 A 4 4 0 1 1 236.00399999933333 257.9999980000002 Z" opacity="1" class="highcharts-point highcharts-negative highcharts-color-0" tabindex="-1" style="outline: currentcolor none medium;" role="img" aria-label="5. Thursday, Apr 21, 13:15:02.073, -3.0668577823698495. Value."></path><path fill="#7cb5ec" d="M 294 160 A 4 4 0 1 1 294.00399999933336 159.99999800000018 Z" opacity="1" class="highcharts-point highcharts-color-0" tabindex="-1" style="outline: currentcolor none medium;" role="img" aria-label="6. Thursday, Apr 21, 13:15:03.073, 0.4282173190325782. Value."></path><path fill="#7cb5ec" d="M 352 105 A 4 4 0 1 1 352.00399999933336 104.99999800000016 Z" opacity="1" class="highcharts-point highcharts-color-0" tabindex="-1" style="outline: currentcolor none medium;" role="img" aria-label="7. Thursday, Apr 21, 13:15:04.073, 2.3769571909702614. Value."></path><path fill="#7cb5ec" d="M 410 207 A 4 4 0 1 1 410.00399999933336 206.99999800000018 Z" opacity="1" class="highcharts-point highcharts-negative highcharts-color-0" tabindex="-1" style="outline: currentcolor none medium;" role="img" aria-label="8. Thursday, Apr 21, 13:15:05.073, -1.264228413108719. Value."></path><path fill="#7cb5ec" d="M 467 247 A 4 4 0 1 1 467.00399999933336 246.99999800000018 Z" opacity="1" class="highcharts-point highcharts-negative highcharts-color-0" tabindex="-1" style="outline: currentcolor none medium;" role="img" aria-label="9. Thursday, Apr 21, 13:15:06.073, -2.6929048822011676. Value."></path><path fill="#7cb5ec" d="M 525 34 A 4 4 0 1 1 525.0039999993334 33.99999800000017 Z" opacity="1" class="highcharts-point highcharts-color-0" tabindex="-1" style="outline: currentcolor none medium;" role="img" aria-label="10. Thursday, Apr 21, 13:15:07.073, 4.932998020821355. Value."></path></g></g><text x="300" text-anchor="middle" class="highcharts-title" data-z-index="4" style="color: rgb(51, 51, 51); font-size: 18px; fill: rgb(51, 51, 51);" y="24" aria-hidden="true">Live Data</text><text x="300" text-anchor="middle" class="highcharts-subtitle" data-z-index="4" style="color: rgb(102, 102, 102); fill: rgb(102, 102, 102);" y="45" aria-hidden="true"></text><text x="10" text-anchor="start" class="highcharts-caption" data-z-index="4" style="color: rgb(102, 102, 102); fill: rgb(102, 102, 102);" y="397" aria-hidden="true"></text><g class="highcharts-legend highcharts-no-tooltip" data-z-index="7" transform="translate(266,359)" aria-hidden="true"><rect fill="none" class="highcharts-legend-box" rx="0" ry="0" x="0" y="0" width="68" height="26" visibility="visible"></rect><g data-z-index="1"><g><g class="highcharts-legend-item highcharts-spline-series highcharts-color-0 highcharts-series-0" data-z-index="1" transform="translate(8,3)"><path fill="none" d="M 0 11 L 16 11" class="highcharts-graph" stroke="#7cb5ec" stroke-width="2"></path><path fill="#7cb5ec" d="M 8 15 A 4 4 0 1 1 8.003999999333336 14.999998000000167 Z" class="highcharts-point" opacity="1"></path><text x="21" style="color: rgb(51, 51, 51); cursor: pointer; font-size: 12px; font-weight: bold; fill: rgb(51, 51, 51);" text-anchor="start" data-z-index="2" y="15">Value</text></g></g></g></g><g class="highcharts-axis-labels highcharts-xaxis-labels" data-z-index="7" aria-hidden="true"><text x="59.983333333333" style="color: rgb(102, 102, 102); cursor: default; font-size: 11px; fill: rgb(102, 102, 102);" text-anchor="middle" transform="translate(0,0)" y="345" opacity="1">13:14:58</text><text x="175.66960784314" style="color: rgb(102, 102, 102); cursor: default; font-size: 11px; fill: rgb(102, 102, 102);" text-anchor="middle" transform="translate(0,0)" y="345" opacity="1">13:15:00</text><text x="291.35588235294" style="color: rgb(102, 102, 102); cursor: default; font-size: 11px; fill: rgb(102, 102, 102);" text-anchor="middle" transform="translate(0,0)" y="345" opacity="1">13:15:02</text><text x="407.04215686275" style="color: rgb(102, 102, 102); cursor: default; font-size: 11px; fill: rgb(102, 102, 102);" text-anchor="middle" transform="translate(0,0)" y="345" opacity="1">13:15:04</text><text x="522.72843137255" style="color: rgb(102, 102, 102); cursor: default; font-size: 11px; fill: rgb(102, 102, 102);" text-anchor="middle" transform="translate(0,0)" y="345" opacity="1">13:15:06</text></g><g class="highcharts-axis-labels highcharts-yaxis-labels" data-z-index="7" aria-hidden="true"><text x="44" style="color: rgb(102, 102, 102); cursor: default; font-size: 11px; fill: rgb(102, 102, 102);" text-anchor="end" transform="translate(0,0)" y="331" opacity="1">-4</text><text x="44" style="color: rgb(102, 102, 102); cursor: default; font-size: 11px; fill: rgb(102, 102, 102);" text-anchor="end" transform="translate(0,0)" y="275" opacity="1">-2</text><text x="44" style="color: rgb(102, 102, 102); cursor: default; font-size: 11px; fill: rgb(102, 102, 102);" text-anchor="end" transform="translate(0,0)" y="219" opacity="1">0</text><text x="44" style="color: rgb(102, 102, 102); cursor: default; font-size: 11px; fill: rgb(102, 102, 102);" text-anchor="end" transform="translate(0,0)" y="163" opacity="1">2</text><text x="44" style="color: rgb(102, 102, 102); cursor: default; font-size: 11px; fill: rgb(102, 102, 102);" text-anchor="end" transform="translate(0,0)" y="107" opacity="1">4</text><text x="44" style="color: rgb(102, 102, 102); cursor: default; font-size: 11px; fill: rgb(102, 102, 102);" text-anchor="end" transform="translate(0,0)" y="51" opacity="1">6</text></g><text x="590" class="highcharts-credits" text-anchor="end" data-z-index="8" style="cursor: pointer; color: rgb(153, 153, 153); font-size: 9px; fill: rgb(153, 153, 153);" y="395" aria-label="Chart credits: Highcharts.com" aria-hidden="false">Highcharts.com</text></svg>