<?xml version="1.0" standalone="no"?><!DOCTYPE svg PUBLIC "-//W3C//DTD SVG 1.1//EN" "http://www.w3.org/Graphics/SVG/1.1/DTD/svg11.dtd"><svg xmlns:xlink="http://www.w3.org/1999/xlink" version="1.1" class="highcharts-root" style="font-family: &quot;Lucida Grande&quot;, &quot;Lucida Sans Unicode&quot;, Arial, Helvetica, sans-serif; font-size: 12px;" xmlns="http://www.w3.org/2000/svg" width="600" height="400" viewBox="0 0 600 400" aria-label="Interactive chart" aria-hidden="false"><desc aria-hidden="true">Created with Highcharts 10.1.0</desc><defs aria-hidden="true"><clipPath id="highcharts-8d0nuky-20-"><rect x="0" y="0" width="580" height="325" fill="none"></rect></clipPath></defs><rect fill="#ffffff" class="highcharts-background" x="0" y="0" width="600" height="400" rx="0" ry="0" aria-hidden="true"></rect><rect fill="none" class="highcharts-plot-background" x="10" y="60" width="580" height="325" aria-hidden="true"></rect><rect fill="none" class="highcharts-plot-border" data-z-index="1" x="10" y="60" width="580" height="325" aria-hidden="true"></rect><g class="highcharts-series-group" data-z-index="3" aria-hidden="false"><g class="highcharts-series highcharts-series-0 highcharts-pie-series" data-z-index="0.1" opacity="1" transform="translate(10,60) scale(1 1)" clip-path="none" aria-hidden="false"><path fill="#7cb5ec" d="M 305.47311513711225 41.5000027378631 A 132 132 0 1 1 209.69376062765426 264.3028881552167 L 305.5 173.5 A 0 0 0 1 0 305.5 173.5 Z" transform="translate(0,0)" stroke="#ffffff" stroke-width="1" opacity="1" stroke-linejoin="round" class="highcharts-point highcharts-color-0" tabindex="-1" style="outline: currentcolor none medium;" role="img" aria-label="Chrome, 62.74%. Browsers."></path><path fill="#434348" d="M 209.60300565774858 264.20703653037174 A 132 132 0 0 1 174.0654402149503 185.7047734149472 L 305.5 173.5 A 0 0 0 0 0 305.5 173.5 Z" transform="translate(0,0)" stroke="#ffffff" stroke-width="1" opacity="1" stroke-linejoin="round" class="highcharts-point highcharts-color-1" tabindex="-1" style="outline: currentcolor none medium;" role="img" aria-label="Firefox, 10.57%. Browsers."></path><path fill="#90ed7d" d="M 174.05330116084392 185.57333277468172 A 132 132 0 0 1 182.1207783935523 126.57913389773081 L 305.5 173.5 A 0 0 0 0 0 305.5 173.5 Z" transform="translate(0,0)" stroke="#ffffff" stroke-width="1" opacity="1" stroke-linejoin="round" class="highcharts-point highcharts-color-2" tabindex="-1" style="outline: currentcolor none medium;" role="img" aria-label="Internet Explorer, 7.23%. Browsers."></path><path fill="#f7a35c" d="M 182.1677609414401 126.45577815711867 A 132 132 0 0 1 205.86295279742097 86.91790702026756 L 305.5 173.5 A 0 0 0 0 0 305.5 173.5 Z" transform="translate(0,0)" stroke="#ffffff" stroke-width="1" opacity="1" stroke-linejoin="round" class="highcharts-point highcharts-color-3" tabindex="-1" style="outline: currentcolor none medium;" role="img" aria-label="Safari, 5.58%. Browsers."></path><path fill="#8085e9" d="M 205.94958469448977 86.81831328071404 A 132 132 0 0 1 230.70714064863893 64.73406696006548 L 305.5 173.5 A 0 0 0 0 0 305.5 173.5 Z" transform="translate(0,0)" stroke="#ffffff" stroke-width="1" opacity="1" stroke-linejoin="round" class="highcharts-point highcharts-color-4" tabindex="-1" style="outline: currentcolor none medium;" role="img" aria-label="Edge, 4.02%. Browsers."></path><path fill="#f15c80" d="M 230.8159439599778 64.65932849614154 A 132 132 0 0 1 244.38258123140696 56.5014482009951 L 305.5 173.5 A 0 0 0 0 0 305.5 173.5 Z" transform="translate(0,0)" stroke="#ffffff" stroke-width="1" opacity="1" stroke-linejoin="round" class="highcharts-point highcharts-color-5" tabindex="-1" style="outline: currentcolor none medium;" role="img" aria-label="Opera, 1.92%. Browsers."></path><path fill="#e4d354" d="M 244.4996103224131 56.44038929168374 A 132 132 0 0 1 305.31665464817456 41.50012733156913 L 305.5 173.5 A 0 0 0 0 0 305.5 173.5 Z" transform="translate(0,0)" stroke="#ffffff" stroke-width="1" opacity="1" stroke-linejoin="round" class="highcharts-point highcharts-color-6" tabindex="-1" style="outline: currentcolor none medium;" role="img" aria-label="Other, 7.62%. Browsers."></path></g><g class="highcharts-markers highcharts-series-0 highcharts-pie-series" data-z-index="0.1" opacity="1" transform="translate(10,60) scale(1 1)" clip-path="none" aria-hidden="true"></g></g><text x="300" text-anchor="middle" class="highcharts-title" data-z-index="4" style="color: rgb(51, 51, 51); font-size: 18px; fill: rgb(51, 51, 51);" y="24" aria-hidden="true">Browser market shares. January, 2018</text><text x="300" text-anchor="middle" class="highcharts-subtitle" data-z-index="4" style="color: rgb(102, 102, 102); fill: rgb(102, 102, 102);" y="45" aria-hidden="true">Click the slices to view versions. Source: <a xlink:href="http://statcounter.com" target="_blank"><tspan>statcounter.com</tspan></a></text><text x="10" text-anchor="start" class="highcharts-caption" data-z-index="4" style="color: rgb(102, 102, 102); fill: rgb(102, 102, 102);" y="397" aria-hidden="true"></text><g class="highcharts-data-labels highcharts-series-0 highcharts-pie-series" data-z-index="6" opacity="1" transform="translate(10,60) scale(1 1)" aria-hidden="true"><path fill="none" class="highcharts-data-label-connector highcharts-color-0" stroke="#7cb5ec" stroke-width="1" d="M 459.2944166132183 237.56419893147836 C 454.2944166132183 237.56419893147836 437.7617036561941 230.44595460575852 432.250799337186 228.07320649718525 L 426.7398950181779 225.700458388612"></path><path fill="none" class="highcharts-data-label-connector highcharts-color-1" stroke="#434348" stroke-width="1" d="M 152.8804161701042 240.22674478714188 C 157.8804161701042 240.22674478714188 174.28259215120374 232.812662033015 179.74998414490358 230.3413011149727 L 185.2173761386034 227.86994019693043"></path><path fill="none" class="highcharts-data-label-connector highcharts-color-2" stroke="#90ed7d" stroke-width="1" d="M 140.0061575030069 151.46079582765353 C 145.0061575030069 151.46079582765353 162.83880666933945 153.9095962912476 168.78302305811698 154.7258631124456 L 174.72723944689452 155.54212993364362"></path><path fill="none" class="highcharts-data-label-connector highcharts-color-3" stroke="#f7a35c" stroke-width="1" d="M 161.5676555404387 90.18251286212595 C 166.5676555404387 90.18251286212595 182.0045827026122 99.44001143300083 187.15022509000335 102.52584428995914 L 192.2958674773945 105.61167714691744"></path><path fill="none" class="highcharts-data-label-connector highcharts-color-4" stroke="#8085e9" stroke-width="1" d="M 187.41596045418257 57.5 C 192.41596045418257 57.5 209.68153037222868 66.00664728369543 213.67396660671915 70.48553698020812 L 217.66640284120962 74.96442667672082"></path><path fill="none" class="highcharts-data-label-connector highcharts-color-5" stroke="#f15c80" stroke-width="1" d="M 217.2954328176632 34.5 C 222.2954328176632 34.5 231.3621825924883 50.05128988097745 234.4512583178013 55.19498613593672 L 237.54033404311429 60.338682390896"></path><path fill="none" class="highcharts-data-label-connector highcharts-color-6" stroke="#e4d354" stroke-width="1" d="M 261.96733381644776 11.5 C 266.96733381644776 11.5 271.2487411701758 33.63273696617787 272.6758769547518 39.460539592587125 L 274.1030127393278 45.28834221899638"></path><g class="highcharts-label highcharts-data-label highcharts-data-label-color-0 highcharts-drilldown-data-label" data-z-index="1" transform="translate(464,228)" style="cursor: pointer;"><text x="5" data-z-index="1" y="16" style="color: rgb(0, 51, 153); font-size: 11px; font-weight: bold; fill: rgb(0, 51, 153); text-decoration: underline;"><tspan class="highcharts-text-outline" fill="#FFFFFF" stroke="#FFFFFF" stroke-width="2px" stroke-linejoin="round">Chrome: 62.7%<tspan x="5" y="16">​</tspan></tspan>Chrome: 62.7%</text></g><g class="highcharts-label highcharts-data-label highcharts-data-label-color-1 highcharts-drilldown-data-label" data-z-index="1" transform="translate(63,230)" style="cursor: pointer;"><text x="5" data-z-index="1" y="16" style="color: rgb(0, 51, 153); font-size: 11px; font-weight: bold; fill: rgb(0, 51, 153); text-decoration: underline;"><tspan class="highcharts-text-outline" fill="#FFFFFF" stroke="#FFFFFF" stroke-width="2px" stroke-linejoin="round">Firefox: 10.6%<tspan x="5" y="16">​</tspan></tspan>Firefox: 10.6%</text></g><g class="highcharts-label highcharts-data-label highcharts-data-label-color-2 highcharts-drilldown-data-label" data-z-index="1" transform="translate(5,141)" style="cursor: pointer;"><text x="5" data-z-index="1" y="16" style="color: rgb(0, 51, 153); font-size: 11px; font-weight: bold; fill: rgb(0, 51, 153); text-decoration: underline;"><tspan class="highcharts-text-outline" fill="#FFFFFF" stroke="#FFFFFF" stroke-width="2px" stroke-linejoin="round">Internet Explorer: 7.2%<tspan x="5" y="16">​</tspan></tspan>Internet Explorer: 7.2%</text></g><g class="highcharts-label highcharts-data-label highcharts-data-label-color-3 highcharts-drilldown-data-label" data-z-index="1" transform="translate(84,80)" style="cursor: pointer;"><text x="5" data-z-index="1" y="16" style="color: rgb(0, 51, 153); font-size: 11px; font-weight: bold; fill: rgb(0, 51, 153); text-decoration: underline;"><tspan class="highcharts-text-outline" fill="#FFFFFF" stroke="#FFFFFF" stroke-width="2px" stroke-linejoin="round">Safari: 5.6%<tspan x="5" y="16">​</tspan></tspan>Safari: 5.6%</text></g><g class="highcharts-label highcharts-data-label highcharts-data-label-color-4 highcharts-drilldown-data-label" data-z-index="1" transform="translate(114,48)" style="cursor: pointer;"><text x="5" data-z-index="1" y="16" style="color: rgb(0, 51, 153); font-size: 11px; font-weight: bold; fill: rgb(0, 51, 153); text-decoration: underline;"><tspan class="highcharts-text-outline" fill="#FFFFFF" stroke="#FFFFFF" stroke-width="2px" stroke-linejoin="round">Edge: 4.0%<tspan x="5" y="16">​</tspan></tspan>Edge: 4.0%</text></g><g class="highcharts-label highcharts-data-label highcharts-data-label-color-5 highcharts-drilldown-data-label" data-z-index="1" transform="translate(139,25)" style="cursor: pointer;"><text x="5" data-z-index="1" y="16" style="color: rgb(0, 51, 153); font-size: 11px; font-weight: bold; fill: rgb(0, 51, 153); text-decoration: underline;"><tspan class="highcharts-text-outline" fill="#FFFFFF" stroke="#FFFFFF" stroke-width="2px" stroke-linejoin="round">Opera: 1.9%<tspan x="5" y="16">​</tspan></tspan>Opera: 1.9%</text></g><g class="highcharts-label highcharts-data-label highcharts-data-label-color-6" data-z-index="1" transform="translate(186,2)"><text x="5" data-z-index="1" y="16" style="color: rgb(0, 0, 0); font-size: 11px; font-weight: bold; fill: rgb(0, 0, 0);"><tspan class="highcharts-text-outline" fill="#FFFFFF" stroke="#FFFFFF" stroke-width="2px" stroke-linejoin="round" style="">Other: 7.6%<tspan x="5" y="16">​</tspan></tspan>Other: 7.6%</text></g></g><g class="highcharts-legend highcharts-no-tooltip" data-z-index="7" aria-hidden="true"><rect fill="none" class="highcharts-legend-box" rx="0" ry="0" x="0" y="0" width="8" height="8" visibility="hidden"></rect><g data-z-index="1"><g></g></g></g><text x="590" class="highcharts-credits" text-anchor="end" data-z-index="8" style="cursor: pointer; color: rgb(153, 153, 153); font-size: 9px; fill: rgb(153, 153, 153);" y="395" aria-label="Chart credits: Highcharts.com" aria-hidden="false">Highcharts.com</text></svg>