<?xml version="1.0" standalone="no"?><!DOCTYPE svg PUBLIC "-//W3C//DTD SVG 1.1//EN" "http://www.w3.org/Graphics/SVG/1.1/DTD/svg11.dtd"><svg xmlns:xlink="http://www.w3.org/1999/xlink" version="1.1" class="highcharts-root" style="font-family: &quot;Lucida Grande&quot;, &quot;Lucida Sans Unicode&quot;, Arial, Helvetica, sans-serif; font-size: 12px;" xmlns="http://www.w3.org/2000/svg" width="600" height="660" viewBox="0 0 600 660" aria-label="Interactive chart" aria-hidden="false"><desc aria-hidden="true">Created with Highcharts 10.1.0</desc><defs aria-hidden="true"><clipPath id="highcharts-phalhjq-12-"><rect x="0" y="0" width="580" height="592" fill="none"></rect></clipPath><clipPath id="highcharts-phalhjq-13-"><rect x="0" y="0" width="580" height="1548.805178219768" fill="none"></rect></clipPath></defs><rect fill="#ffffff" class="highcharts-background" x="0" y="0" width="600" height="660" rx="0" ry="0" aria-hidden="true"></rect><rect fill="none" class="highcharts-plot-background" x="10" y="53" width="580" height="592" aria-hidden="true"></rect><g class="highcharts-pane-group" data-z-index="0" aria-hidden="true"><path fill="rgb(124,181,236)" fill-opacity="0.3" d="M 300 72.92000000000002 A 276.08 276.08 0 1 1 299.7239200460132 72.9201380399885 M 299.7830800361532 132.08010845999098 A 216.92 216.92 0 1 0 300 132.08" class="highcharts-pane "></path><path fill="rgb(67,67,72)" fill-opacity="0.3" d="M 300 134.545 A 214.455 214.455 0 1 1 299.78554503574236 134.54510722749106 M 299.84470502588243 193.70507764749354 A 155.295 155.295 0 1 0 300 193.705" class="highcharts-pane "></path><path fill="rgb(144,237,125)" fill-opacity="0.3" d="M 300 196.17 A 152.83 152.83 0 1 1 299.8471700254716 196.17007641499362 M 299.9063300156116 255.3300468349961 A 93.67 93.67 0 1 0 300 255.32999999999998" class="highcharts-pane "></path></g><g class="highcharts-grid highcharts-yaxis-grid highcharts-radial-axis-grid" data-z-index="1" aria-hidden="true"></g><rect fill="none" class="highcharts-plot-border" data-z-index="1" x="10" y="53" width="580" height="592" aria-hidden="true"></rect><g class="highcharts-axis highcharts-yaxis highcharts-radial-axis" data-z-index="2" aria-hidden="true"><path fill="none" class="highcharts-axis-line" data-z-index="7" d="M 300 102.5 A 246.5 246.5 0 1 1 299.7535000410832 102.50012324998974 M 300 349 A 0 0 0 1 0 300 349"></path></g><g class="highcharts-series-group" data-z-index="3" aria-hidden="false"><g class="highcharts-series highcharts-series-0 highcharts-solidgauge-series" data-z-index="0.1" opacity="1" transform="translate(10,53) scale(1 1)" clip-path="url(#highcharts-phalhjq-12-)" aria-hidden="false" role="region" tabindex="-1" style="outline: currentcolor none medium;" aria-label="Move, series 1 of 3 with 1 data point."><path fill="#7cb5ec" d="M 290 19.920000000000016 A 276.08 276.08 0 1 1 27.347134867476427 210.94919848892437 A 29.58 29.58 0 1 1 83.62989168158865 229.1743702412977 A 216.92 216.92 0 1 0 290 79.08000000000001 A 29.58 29.58 0 1 1 290 19.920000000000016" sweep-flag="0" stroke-linecap="round" stroke-linejoin="round" class="highcharts-point highcharts-color-0" tabindex="-1" style="outline: currentcolor none medium;" role="img" aria-label="80%. Move."></path></g><g class="highcharts-markers highcharts-series-0 highcharts-solidgauge-series" data-z-index="0.1" opacity="1" transform="translate(10,53) scale(1 1)" clip-path="none" aria-hidden="true"></g><g class="highcharts-series highcharts-series-1 highcharts-solidgauge-series" data-z-index="0.1" opacity="1" transform="translate(10,53) scale(1 1)" clip-path="url(#highcharts-phalhjq-12-)" aria-hidden="false" role="region" tabindex="-1" style="outline: currentcolor none medium;" aria-label="Exercise, series 2 of 3 with 1 data point."><path fill="#434348" d="M 290 81.54499999999999 A 214.455 214.455 0 1 1 116.62840068545464 422.2269209642568 A 29.580000000000013 29.580000000000013 0 1 1 164.45504877222578 387.4057013879101 A 155.295 155.295 0 1 0 290 140.705 A 29.580000000000013 29.580000000000013 0 1 1 290 81.54499999999999" sweep-flag="0" stroke-linecap="round" stroke-linejoin="round" class="highcharts-point highcharts-color-0" tabindex="-1" style="outline: currentcolor none medium;" role="img" aria-label="65%. Exercise."></path></g><g class="highcharts-markers highcharts-series-1 highcharts-solidgauge-series" data-z-index="0.1" opacity="1" transform="translate(10,53) scale(1 1)" clip-path="none" aria-hidden="true"></g><g class="highcharts-series highcharts-series-2 highcharts-solidgauge-series" data-z-index="0.1" opacity="1" transform="translate(10,53) scale(1 1)" clip-path="url(#highcharts-phalhjq-12-)" aria-hidden="false" role="region" tabindex="-1" style="outline: currentcolor none medium;" aria-label="Stand, series 3 of 3 with 1 data point."><path fill="#90ed7d" d="M 290 143.17 A 152.83 152.83 0 0 1 290.15282997452823 448.8299235850064 A 29.580000000000005 29.580000000000005 0 1 1 290.09366998438827 389.6699531650039 A 93.67 93.67 0 0 0 290 202.32999999999998 A 29.580000000000005 29.580000000000005 0 1 1 290 143.17" sweep-flag="0" stroke-linecap="round" stroke-linejoin="round" class="highcharts-point highcharts-color-0" tabindex="-1" style="outline: currentcolor none medium;" role="img" aria-label="50%. Stand."></path><path fill="none" d="M -8 0 L 8 0 M 0 -8 L 8 0 L 0 8" stroke-linecap="round" stroke-linejoin="round" stroke="#303030" stroke-width="2" data-z-index="10" transform="translate(290,49.500000000000014)"></path><path fill="none" d="M -8 0 L 8 0 M 0 -8 L 8 0 L 0 8 M 8 -8 L 16 0 L 8 8" stroke-linecap="round" stroke-linejoin="round" stroke="#ffffff" stroke-width="2" data-z-index="10" transform="translate(290,111.125)"></path><path fill="none" d="M 0 8 L 0 -8 M -8 0 L 0 -8 L 8 0" stroke-linecap="round" stroke-linejoin="round" stroke="#303030" stroke-width="2" data-z-index="10" transform="translate(290,172.74999999999997)"></path></g><g class="highcharts-markers highcharts-series-2 highcharts-solidgauge-series" data-z-index="0.1" opacity="1" transform="translate(10,53) scale(1 1)" clip-path="none" aria-hidden="true"></g></g><text x="300" text-anchor="middle" class="highcharts-title" data-z-index="4" style="color: rgb(51, 51, 51); font-size: 24px; fill: rgb(51, 51, 51);" y="30" aria-hidden="true">Activity</text><text x="300" text-anchor="middle" class="highcharts-subtitle" data-z-index="4" style="color: rgb(102, 102, 102); fill: rgb(102, 102, 102);" y="52" aria-hidden="true"></text><text x="10" text-anchor="start" class="highcharts-caption" data-z-index="4" style="color: rgb(102, 102, 102); fill: rgb(102, 102, 102);" y="657" aria-hidden="true"></text><g class="highcharts-legend highcharts-no-tooltip" data-z-index="7" aria-hidden="true"><rect fill="none" class="highcharts-legend-box" rx="0" ry="0" x="0" y="0" width="8" height="8" visibility="hidden"></rect><g data-z-index="1"><g></g></g></g><g class="highcharts-axis-labels highcharts-yaxis-labels highcharts-radial-axis-labels" data-z-index="7" aria-hidden="true"></g><text x="590" class="highcharts-credits" text-anchor="end" data-z-index="8" style="cursor: pointer; color: rgb(153, 153, 153); font-size: 9px; fill: rgb(153, 153, 153);" y="655" aria-label="Chart credits: Highcharts.com" aria-hidden="false">Highcharts.com</text></svg>