<?xml version="1.0" standalone="no"?><!DOCTYPE svg PUBLIC "-//W3C//DTD SVG 1.1//EN" "http://www.w3.org/Graphics/SVG/1.1/DTD/svg11.dtd"><svg xmlns:xlink="http://www.w3.org/1999/xlink" version="1.1" class="highcharts-root" style="font-family: &quot;Lucida Grande&quot;, &quot;Lucida Sans Unicode&quot;, Arial, Helvetica, sans-serif; font-size: 12px;" xmlns="http://www.w3.org/2000/svg" width="600" height="400" viewBox="0 0 600 400" aria-label="Interactive chart" aria-hidden="false"><desc aria-hidden="true">Created with Highcharts 10.1.0</desc><defs aria-hidden="true"><clipPath id="highcharts-inyjkas-18-"><rect x="0" y="0" width="580" height="375" fill="none"></rect></clipPath></defs><rect fill="#ffffff" class="highcharts-background" x="0" y="0" width="600" height="400" rx="0" ry="0" aria-hidden="true"></rect><rect fill="none" class="highcharts-plot-background" x="10" y="10" width="580" height="375" aria-hidden="true"></rect><rect fill="none" class="highcharts-plot-border" data-z-index="1" x="10" y="10" width="580" height="375" aria-hidden="true"></rect><g class="highcharts-series-group" data-z-index="3" aria-hidden="false"><g class="highcharts-series highcharts-series-0 highcharts-pie-series" data-z-index="0.1" opacity="1" transform="translate(10,10) scale(1 1)" clip-path="none" aria-hidden="false"><path fill="#7cb5ec" d="M 95.75001611605765 271.3291270379944 A 194.25 194.25 0 0 1 343.4573381447245 84.50050067408321 L 316.7286690723622 177.87525033704162 A 97.125 97.125 0 0 0 192.8750080580288 271.28956351899717 Z" transform="translate(0,0)" stroke="#ffffff" stroke-width="1" opacity="1" stroke-linejoin="round" class="highcharts-point highcharts-color-0" tabindex="-1" style="outline: currentcolor none medium;" role="img" aria-label="Chrome, 58.9%. Browser share."></path><path fill="#434348" d="M 343.6440608842586 84.55405137806028 A 194.25 194.25 0 0 1 414.5136396982259 122.15467469065175 L 352.25681984911296 196.70233734532587 A 97.125 97.125 0 0 0 316.8220304421293 177.90202568903015 Z" transform="translate(0,0)" stroke="#ffffff" stroke-width="1" opacity="1" stroke-linejoin="round" class="highcharts-point highcharts-color-1" tabindex="-1" style="outline: currentcolor none medium;" role="img" aria-label="Firefox, 13.29%. Browser share."></path><path fill="#90ed7d" d="M 414.66267274187135 122.27926285725414 A 194.25 194.25 0 0 1 463.53764619203 183.97028956206483 L 376.768823096015 227.61014478103243 A 97.125 97.125 0 0 0 352.3313363709357 196.76463142862707 Z" transform="translate(0,0)" stroke="#ffffff" stroke-width="1" opacity="1" stroke-linejoin="round" class="highcharts-point highcharts-color-2" tabindex="-1" style="outline: currentcolor none medium;" role="img" aria-label="Internet Explorer, 13%. Browser share."></path><path fill="#f7a35c" d="M 463.62483911910545 184.1438708191855 A 194.25 194.25 0 0 1 472.606000233812 205.0071801731761 L 381.303000116906 238.12859008658805 A 97.125 97.125 0 0 0 376.8124195595527 227.69693540959275 Z" transform="translate(0,0)" stroke="#ffffff" stroke-width="1" opacity="1" stroke-linejoin="round" class="highcharts-point highcharts-color-3" tabindex="-1" style="outline: currentcolor none medium;" role="img" aria-label="Edge, 3.78%. Browser share."></path><path fill="#8085e9" d="M 472.67215173960585 205.18981926438272 A 194.25 194.25 0 0 1 478.68240161500677 225.07626481652912 L 384.34120080750336 248.16313240826454 A 97.125 97.125 0 0 0 381.3360758698029 238.21990963219136 Z" transform="translate(0,0)" stroke="#ffffff" stroke-width="1" opacity="1" stroke-linejoin="round" class="highcharts-point highcharts-color-4" tabindex="-1" style="outline: currentcolor none medium;" role="img" aria-label="Safari, 3.42%. Browser share."></path><path fill="#f15c80" d="M 478.72848100130165 225.2649702735627 A 194.25 194.25 0 0 1 484.2499028750081 271.055750032375 L 387.124951437504 271.1528750161875 A 97.125 97.125 0 0 0 384.3642405006508 248.25748513678136 Z" transform="translate(0,0)" stroke="#ffffff" stroke-width="1" opacity="1" stroke-linejoin="round" class="highcharts-point highcharts-color-5" tabindex="-1" style="outline: currentcolor none medium;" role="img" aria-label="Other, 7.61%. Browser share."></path></g><g class="highcharts-markers highcharts-series-0 highcharts-pie-series" data-z-index="0.1" opacity="1" transform="translate(10,10) scale(1 1)" clip-path="none" aria-hidden="true"></g></g><text x="300" text-anchor="middle" class="highcharts-title" data-z-index="4" style="color: rgb(51, 51, 51); font-size: 18px; fill: rgb(51, 51, 51);" y="226" aria-hidden="true">Browser<tspan class="highcharts-br" dy="21" x="300">​</tspan>shares<tspan class="highcharts-br" dy="21" x="300">​</tspan>2017</text><text x="300" text-anchor="middle" class="highcharts-subtitle" data-z-index="4" style="color: rgb(102, 102, 102); fill: rgb(102, 102, 102);" y="24" aria-hidden="true"></text><text x="10" text-anchor="start" class="highcharts-caption" data-z-index="4" style="color: rgb(102, 102, 102); fill: rgb(102, 102, 102);" y="397" aria-hidden="true"></text><g class="highcharts-data-labels highcharts-series-0 highcharts-pie-series" data-z-index="6" opacity="1" transform="translate(10,10) scale(1 1)" aria-hidden="true"><g class="highcharts-label highcharts-data-label highcharts-data-label-color-0" data-z-index="1" transform="translate(177,146)"><text x="5" data-z-index="1" y="16" style="color: white; font-size: 11px; font-weight: bold; fill: white;"><tspan class="highcharts-text-outline" fill="#000000" stroke="#000000" stroke-width="2px" stroke-linejoin="round" style="">Chrome<tspan x="5" y="16">​</tspan></tspan>Chrome</text></g><g class="highcharts-label highcharts-data-label highcharts-data-label-color-1" data-z-index="1" transform="translate(334,134)"><text x="5" data-z-index="1" y="16" style="color: white; font-size: 11px; font-weight: bold; fill: white;"><tspan class="highcharts-text-outline" fill="#000000" stroke="#000000" stroke-width="2px" stroke-linejoin="round" style="">Firefox<tspan x="5" y="16">​</tspan></tspan>Firefox</text></g><g class="highcharts-label highcharts-data-label highcharts-data-label-color-2" data-z-index="1" transform="translate(354,172)"><text x="5" data-z-index="1" y="16" style="color: white; font-size: 11px; font-weight: bold; fill: white;"><tspan class="highcharts-text-outline" fill="#000000" stroke="#000000" stroke-width="2px" stroke-linejoin="round" style="">Internet Explorer<tspan x="5" y="16">​</tspan></tspan>Internet Explorer</text></g><g class="highcharts-label highcharts-data-label highcharts-data-label-color-3" data-z-index="1" transform="translate(404,204)"><text x="5" data-z-index="1" y="16" style="color: white; font-size: 11px; font-weight: bold; fill: white;"><tspan class="highcharts-text-outline" fill="#000000" stroke="#000000" stroke-width="2px" stroke-linejoin="round" style="">Edge<tspan x="5" y="16">​</tspan></tspan>Edge</text></g><g class="highcharts-label highcharts-data-label highcharts-data-label-color-4" data-z-index="1" transform="translate(408,220)"><text x="5" data-z-index="1" y="16" style="color: white; font-size: 11px; font-weight: bold; fill: white;"><tspan class="highcharts-text-outline" fill="#000000" stroke="#000000" stroke-width="2px" stroke-linejoin="round" style="">Safari<tspan x="5" y="16">​</tspan></tspan>Safari</text></g></g><g class="highcharts-legend highcharts-no-tooltip" data-z-index="7" aria-hidden="true"><rect fill="none" class="highcharts-legend-box" rx="0" ry="0" x="0" y="0" width="8" height="8" visibility="hidden"></rect><g data-z-index="1"><g></g></g></g><text x="590" class="highcharts-credits" text-anchor="end" data-z-index="8" style="cursor: pointer; color: rgb(153, 153, 153); font-size: 9px; fill: rgb(153, 153, 153);" y="395" aria-label="Chart credits: Highcharts.com" aria-hidden="false">Highcharts.com</text></svg>